[center][img]http://img687.imageshack.us/img687/3867/hirescover12683.jpg[/img]



[img]http://leetleech.org/images/48874973695367351744.png[/img]


Format                           : AVI
Format/Info                      : Audio Video Interleave
Format profile                   : OpenDML
File size                        : 3.74 GiB
Duration                         : 2h 0mn
Overall bit rate                 : 4 448 Kbps
Writing library                  : MPlayer

Video
ID                               : 0
Format                           : MPEG-4 Visual
Format profile                   : Advanced Simple@L5
Format settings, BVOP            : Yes
Format settings, QPel            : No
Format settings, GMC             : No warppoints
Format settings, Matrix          : Default (H.263)
Codec ID                         : XVID
Codec ID/Hint                    : XviD
Duration                         : 2h 0mn
Bit rate                         : 3 996 Kbps
Width                            : 1 280 pixels
Height                           : 720 pixels
Display aspect ratio             : 16:9
Frame rate                       : 23.976 fps
Color space                      : YUV
Chroma subsampling               : 4:2:0
Bit depth                        : 8 bits
Scan type                        : Progressive
Bits/(Pixel*Frame)               : 0.181
Stream size                      : 3.36 GiB (90%)
Writing library                  : XviD 1.2.1 (UTC 2008-12-04)

Audio
ID                               : 1
Format                           : AC-3
Format/Info                      : Audio Coding 3
Mode extension                   : CM (complete main)
Codec ID                         : 2000
Duration                         : 2h 0mn
Bit rate mode                    : Constant
Bit rate                         : 448 Kbps
Channel(s)                       : 6 channels
Channel positions                : Front: L C R, Side: L R, LFE
Sampling rate                    : 48.0 KHz
Bit depth                        : 16 bits
Stream size                      : 386 MiB (10%)
Alignment                        : Split accross interleaves
Interleave, duration             : 500 ms (11.99 video frames)
Interleave, preload duration     : 500 ms




[url]http://www.imdb.com/title/tt1104001/[/url]




[IMG]http://leetleech.org/images/89524873606771859129.png[/IMG]



Users: 7.2/10 (44,441 votes) 493 reviews | Critics: 324 reviews Metascore: 49/100 (based on 40 reviews from Metacritic.com)

The son of a virtual world designer goes looking for his father and ends up inside the digital world that his father designed. He meets his father's creation turned bad and a unique ally who was born inside the digital domain of The Grid.
Director:
Joseph Kosinski
Writers:
Edward Kitsis (screenplay), Adam Horowitz (screenplay), and 6 more credits »
Stars:
Jeff Bridges, Garrett Hedlund and Olivia Wilde 


[img]http://leetleech.org/images/95521316153253938506.png[/img]




[img]http://img545.imageshack.us/img545/7876/vlcsnap2011031017h41m05.png[/img]

[img]http://img405.imageshack.us/img405/5458/vlcsnap2011031017h42m09.png[/img]

[img]http://img546.imageshack.us/img546/6157/vlcsnap2011031017h43m35.png[/img]



Source used

x264 720p thanks 



Greetz to Imagine ,Flawl3ss ,Santi ,Vision ,Kingdom, BDK, TOXiCiNK, THC, Ez, Rx,





[img]http://img411.imageshack.us/img411/6898/sig1n.jpg[/img]




